<mxfile host="app.diagrams.net" agent="Mozilla/5.0 (Windows NT 10.0; Win64; x64) AppleWebKit/537.36 (KHTML, like Gecko) Chrome/136.0.0.0 Safari/537.36" version="26.2.14">
  <diagram name="Pagina-1" id="m4YEYXEHkp1vdNVhqGSe">
    <mxGraphModel dx="1426" dy="743" grid="1" gridSize="10" guides="1" tooltips="1" connect="1" arrows="1" fold="1" page="1" pageScale="1" pageWidth="827" pageHeight="1169" math="0" shadow="0">
      <root>
        <mxCell id="0" />
        <mxCell id="1" parent="0" />
        <mxCell id="-XWO4VeB3XNL8yMkV0jM-1" value="" style="rounded=0;whiteSpace=wrap;html=1;" vertex="1" parent="1">
          <mxGeometry x="130" y="10" width="1270" height="1120" as="geometry" />
        </mxCell>
        <mxCell id="K4UdIjhKpKmGgGh5I3fO-39" style="edgeStyle=orthogonalEdgeStyle;rounded=0;orthogonalLoop=1;jettySize=auto;html=1;entryX=0.5;entryY=0;entryDx=0;entryDy=0;endArrow=open;endFill=0;" parent="1" source="K4UdIjhKpKmGgGh5I3fO-10" target="K4UdIjhKpKmGgGh5I3fO-35" edge="1">
          <mxGeometry relative="1" as="geometry">
            <mxPoint x="420" y="360" as="targetPoint" />
          </mxGeometry>
        </mxCell>
        <mxCell id="K4UdIjhKpKmGgGh5I3fO-10" value="GymPal Controller Facade" style="swimlane;fontStyle=0;childLayout=stackLayout;horizontal=1;startSize=30;horizontalStack=0;resizeParent=1;resizeParentMax=0;resizeLast=0;collapsible=1;marginBottom=0;whiteSpace=wrap;html=1;" parent="1" vertex="1">
          <mxGeometry x="309" y="170" width="210" height="60" as="geometry" />
        </mxCell>
        <mxCell id="K4UdIjhKpKmGgGh5I3fO-18" style="edgeStyle=orthogonalEdgeStyle;rounded=0;orthogonalLoop=1;jettySize=auto;html=1;" parent="1" source="K4UdIjhKpKmGgGh5I3fO-14" target="K4UdIjhKpKmGgGh5I3fO-10" edge="1">
          <mxGeometry relative="1" as="geometry" />
        </mxCell>
        <mxCell id="K4UdIjhKpKmGgGh5I3fO-14" value="GUI" style="swimlane;fontStyle=0;childLayout=stackLayout;horizontal=1;startSize=30;horizontalStack=0;resizeParent=1;resizeParentMax=0;resizeLast=0;collapsible=1;marginBottom=0;whiteSpace=wrap;html=1;" parent="1" vertex="1">
          <mxGeometry x="344" y="20" width="140" height="60" as="geometry" />
        </mxCell>
        <mxCell id="K4UdIjhKpKmGgGh5I3fO-26" value="Archivio" style="swimlane;fontStyle=0;childLayout=stackLayout;horizontal=1;startSize=30;horizontalStack=0;resizeParent=1;resizeParentMax=0;resizeLast=0;collapsible=1;marginBottom=0;whiteSpace=wrap;html=1;" parent="1" vertex="1">
          <mxGeometry x="930" y="360" width="170" height="90" as="geometry" />
        </mxCell>
        <mxCell id="K4UdIjhKpKmGgGh5I3fO-32" value="&amp;nbsp;+getIdStaff :I&lt;span style=&quot;&quot;&gt;d_staff_db&lt;/span&gt;" style="text;html=1;align=left;verticalAlign=middle;whiteSpace=wrap;rounded=0;" parent="K4UdIjhKpKmGgGh5I3fO-26" vertex="1">
          <mxGeometry y="30" width="170" height="30" as="geometry" />
        </mxCell>
        <mxCell id="K4UdIjhKpKmGgGh5I3fO-34" value="&lt;span style=&quot;&quot;&gt;+getPwStaff :pw&lt;/span&gt;_staff_db" style="text;strokeColor=none;fillColor=none;align=left;verticalAlign=middle;spacingLeft=4;spacingRight=4;overflow=hidden;points=[[0,0.5],[1,0.5]];portConstraint=eastwest;rotatable=0;whiteSpace=wrap;html=1;" parent="K4UdIjhKpKmGgGh5I3fO-26" vertex="1">
          <mxGeometry y="60" width="170" height="30" as="geometry" />
        </mxCell>
        <mxCell id="K4UdIjhKpKmGgGh5I3fO-30" style="edgeStyle=orthogonalEdgeStyle;rounded=0;orthogonalLoop=1;jettySize=auto;html=1;entryX=0;entryY=0.5;entryDx=0;entryDy=0;endArrow=open;endFill=0;" parent="1" target="K4UdIjhKpKmGgGh5I3fO-26" edge="1">
          <mxGeometry relative="1" as="geometry">
            <mxPoint x="510" y="405" as="sourcePoint" />
          </mxGeometry>
        </mxCell>
        <mxCell id="K4UdIjhKpKmGgGh5I3fO-35" value="Staff" style="swimlane;fontStyle=0;childLayout=stackLayout;horizontal=1;startSize=30;horizontalStack=0;resizeParent=1;resizeParentMax=0;resizeLast=0;collapsible=1;marginBottom=0;whiteSpace=wrap;html=1;" parent="1" vertex="1">
          <mxGeometry x="321" y="310" width="186" height="176" as="geometry" />
        </mxCell>
        <mxCell id="K4UdIjhKpKmGgGh5I3fO-75" value="&amp;nbsp;String Staff Id" style="text;html=1;align=left;verticalAlign=middle;whiteSpace=wrap;rounded=0;" parent="K4UdIjhKpKmGgGh5I3fO-35" vertex="1">
          <mxGeometry y="30" width="186" height="30" as="geometry" />
        </mxCell>
        <mxCell id="K4UdIjhKpKmGgGh5I3fO-25" value="+main" style="text;strokeColor=none;fillColor=none;align=left;verticalAlign=middle;spacingLeft=4;spacingRight=4;overflow=hidden;points=[[0,0.5],[1,0.5]];portConstraint=eastwest;rotatable=0;whiteSpace=wrap;html=1;" parent="K4UdIjhKpKmGgGh5I3fO-35" vertex="1">
          <mxGeometry y="60" width="186" height="30" as="geometry" />
        </mxCell>
        <mxCell id="K4UdIjhKpKmGgGh5I3fO-50" value="&lt;div&gt;&lt;span style=&quot;background-color: transparent; color: light-dark(rgb(0, 0, 0), rgb(255, 255, 255));&quot;&gt;+logIn(String id_staff_db,&amp;nbsp;&lt;/span&gt;&lt;span style=&quot;background-color: transparent; color: light-dark(rgb(0, 0, 0), rgb(255, 255, 255));&quot;&gt;id_staff_input&lt;/span&gt;&lt;span style=&quot;background-color: transparent; color: light-dark(rgb(0, 0, 0), rgb(255, 255, 255));&quot;&gt;, String pw_staff_db, pw_staff_input)&lt;/span&gt;&lt;/div&gt;&lt;div&gt;:boolean&lt;/div&gt;" style="text;strokeColor=none;fillColor=none;align=left;verticalAlign=middle;spacingLeft=4;spacingRight=4;overflow=hidden;points=[[0,0.5],[1,0.5]];portConstraint=eastwest;rotatable=0;whiteSpace=wrap;html=1;" parent="K4UdIjhKpKmGgGh5I3fO-35" vertex="1">
          <mxGeometry y="90" width="186" height="60" as="geometry" />
        </mxCell>
        <mxCell id="K4UdIjhKpKmGgGh5I3fO-83" value="+ gestioneCalendario:&amp;nbsp;" style="text;strokeColor=none;fillColor=none;align=left;verticalAlign=top;spacingLeft=4;spacingRight=4;overflow=hidden;rotatable=0;points=[[0,0.5],[1,0.5]];portConstraint=eastwest;whiteSpace=wrap;html=1;" parent="K4UdIjhKpKmGgGh5I3fO-35" vertex="1">
          <mxGeometry y="150" width="186" height="26" as="geometry" />
        </mxCell>
        <mxCell id="K4UdIjhKpKmGgGh5I3fO-84" style="edgeStyle=orthogonalEdgeStyle;rounded=0;orthogonalLoop=1;jettySize=auto;html=1;entryX=0.529;entryY=1;entryDx=0;entryDy=0;entryPerimeter=0;exitX=1;exitY=0.5;exitDx=0;exitDy=0;" parent="1" source="K4UdIjhKpKmGgGh5I3fO-82" edge="1">
          <mxGeometry relative="1" as="geometry">
            <mxPoint x="965.9300000000003" y="449.9999999999999" as="targetPoint" />
            <mxPoint x="430.0000000000002" y="703.0344827586207" as="sourcePoint" />
            <Array as="points">
              <mxPoint x="484" y="703" />
              <mxPoint x="966" y="703" />
            </Array>
          </mxGeometry>
        </mxCell>
        <mxCell id="K4UdIjhKpKmGgGh5I3fO-85" style="edgeStyle=orthogonalEdgeStyle;rounded=0;orthogonalLoop=1;jettySize=auto;html=1;" parent="1" source="K4UdIjhKpKmGgGh5I3fO-52" edge="1">
          <mxGeometry relative="1" as="geometry">
            <mxPoint x="1270" y="440" as="targetPoint" />
          </mxGeometry>
        </mxCell>
        <mxCell id="K4UdIjhKpKmGgGh5I3fO-52" value="Manager" style="swimlane;fontStyle=0;childLayout=stackLayout;horizontal=1;startSize=30;horizontalStack=0;resizeParent=1;resizeParentMax=0;resizeLast=0;collapsible=1;marginBottom=0;whiteSpace=wrap;html=1;" parent="1" vertex="1">
          <mxGeometry x="344" y="660" width="140" height="60" as="geometry" />
        </mxCell>
        <mxCell id="K4UdIjhKpKmGgGh5I3fO-82" value="+ overrideArchivio:" style="text;strokeColor=none;fillColor=none;align=left;verticalAlign=top;spacingLeft=4;spacingRight=4;overflow=hidden;rotatable=0;points=[[0,0.5],[1,0.5]];portConstraint=eastwest;whiteSpace=wrap;html=1;" parent="K4UdIjhKpKmGgGh5I3fO-52" vertex="1">
          <mxGeometry y="30" width="140" height="30" as="geometry" />
        </mxCell>
        <mxCell id="K4UdIjhKpKmGgGh5I3fO-87" style="edgeStyle=orthogonalEdgeStyle;rounded=0;orthogonalLoop=1;jettySize=auto;html=1;entryX=0.493;entryY=1;entryDx=0;entryDy=0;entryPerimeter=0;" parent="1" source="K4UdIjhKpKmGgGh5I3fO-60" target="K4UdIjhKpKmGgGh5I3fO-86" edge="1">
          <mxGeometry relative="1" as="geometry">
            <mxPoint x="680" y="750.8333333333334" as="targetPoint" />
            <Array as="points">
              <mxPoint x="251" y="790" />
              <mxPoint x="1240" y="790" />
            </Array>
          </mxGeometry>
        </mxCell>
        <mxCell id="K4UdIjhKpKmGgGh5I3fO-60" value="Receptionist" style="swimlane;fontStyle=0;childLayout=stackLayout;horizontal=1;startSize=30;horizontalStack=0;resizeParent=1;resizeParentMax=0;resizeLast=0;collapsible=1;marginBottom=0;whiteSpace=wrap;html=1;align=left;" parent="1" vertex="1">
          <mxGeometry x="181" y="660" width="140" height="86" as="geometry" />
        </mxCell>
        <mxCell id="K4UdIjhKpKmGgGh5I3fO-88" value="&amp;nbsp;+inizializzaIscrizione" style="text;html=1;align=left;verticalAlign=middle;resizable=0;points=[];autosize=1;strokeColor=none;fillColor=none;" parent="K4UdIjhKpKmGgGh5I3fO-60" vertex="1">
          <mxGeometry y="30" width="140" height="30" as="geometry" />
        </mxCell>
        <mxCell id="K4UdIjhKpKmGgGh5I3fO-95" value="+modificaAbbonamento:&amp;nbsp;" style="text;strokeColor=none;fillColor=none;align=left;verticalAlign=top;spacingLeft=4;spacingRight=4;overflow=hidden;rotatable=0;points=[[0,0.5],[1,0.5]];portConstraint=eastwest;whiteSpace=wrap;html=1;" parent="K4UdIjhKpKmGgGh5I3fO-60" vertex="1">
          <mxGeometry y="60" width="140" height="26" as="geometry" />
        </mxCell>
        <mxCell id="K4UdIjhKpKmGgGh5I3fO-69" value="Extends" style="endArrow=block;endSize=16;endFill=0;html=1;rounded=0;entryX=0.5;entryY=0.769;entryDx=0;entryDy=0;entryPerimeter=0;" parent="1" edge="1">
          <mxGeometry width="160" relative="1" as="geometry">
            <mxPoint x="414" y="660" as="sourcePoint" />
            <mxPoint x="413.58" y="486.0039999999999" as="targetPoint" />
            <Array as="points" />
          </mxGeometry>
        </mxCell>
        <mxCell id="K4UdIjhKpKmGgGh5I3fO-70" value="" style="endArrow=none;html=1;rounded=0;" parent="1" edge="1">
          <mxGeometry relative="1" as="geometry">
            <mxPoint x="254" y="560" as="sourcePoint" />
            <mxPoint x="414" y="560" as="targetPoint" />
            <Array as="points">
              <mxPoint x="254" y="660" />
              <mxPoint x="254" y="560" />
            </Array>
          </mxGeometry>
        </mxCell>
        <mxCell id="K4UdIjhKpKmGgGh5I3fO-76" value="Calendario" style="swimlane;fontStyle=0;childLayout=stackLayout;horizontal=1;startSize=30;horizontalStack=0;resizeParent=1;resizeParentMax=0;resizeLast=0;collapsible=1;marginBottom=0;whiteSpace=wrap;html=1;" parent="1" vertex="1">
          <mxGeometry x="1171" y="370" width="140" height="70" as="geometry" />
        </mxCell>
        <mxCell id="K4UdIjhKpKmGgGh5I3fO-86" value="+ metodi: attribute" style="text;strokeColor=none;fillColor=none;align=left;verticalAlign=top;spacingLeft=4;spacingRight=4;overflow=hidden;rotatable=0;points=[[0,0.5],[1,0.5]];portConstraint=eastwest;whiteSpace=wrap;html=1;" parent="K4UdIjhKpKmGgGh5I3fO-76" vertex="1">
          <mxGeometry y="30" width="140" height="40" as="geometry" />
        </mxCell>
        <mxCell id="K4UdIjhKpKmGgGh5I3fO-92" style="edgeStyle=orthogonalEdgeStyle;rounded=0;orthogonalLoop=1;jettySize=auto;html=1;entryX=0;entryY=0.5;entryDx=0;entryDy=0;" parent="1" source="K4UdIjhKpKmGgGh5I3fO-77" target="K4UdIjhKpKmGgGh5I3fO-79" edge="1">
          <mxGeometry relative="1" as="geometry" />
        </mxCell>
        <mxCell id="K4UdIjhKpKmGgGh5I3fO-100" style="edgeStyle=orthogonalEdgeStyle;rounded=0;orthogonalLoop=1;jettySize=auto;html=1;entryX=0;entryY=0.5;entryDx=0;entryDy=0;" parent="1" source="K4UdIjhKpKmGgGh5I3fO-77" target="K4UdIjhKpKmGgGh5I3fO-78" edge="1">
          <mxGeometry relative="1" as="geometry">
            <mxPoint x="380" y="1010" as="targetPoint" />
          </mxGeometry>
        </mxCell>
        <mxCell id="K4UdIjhKpKmGgGh5I3fO-104" style="edgeStyle=orthogonalEdgeStyle;rounded=0;orthogonalLoop=1;jettySize=auto;html=1;entryX=0.5;entryY=0;entryDx=0;entryDy=0;" parent="1" source="K4UdIjhKpKmGgGh5I3fO-77" target="K4UdIjhKpKmGgGh5I3fO-102" edge="1">
          <mxGeometry relative="1" as="geometry" />
        </mxCell>
        <mxCell id="K4UdIjhKpKmGgGh5I3fO-77" value="Iscrizione" style="swimlane;fontStyle=0;childLayout=stackLayout;horizontal=1;startSize=30;horizontalStack=0;resizeParent=1;resizeParentMax=0;resizeLast=0;collapsible=1;marginBottom=0;whiteSpace=wrap;html=1;" parent="1" vertex="1">
          <mxGeometry x="181" y="870" width="140" height="60" as="geometry" />
        </mxCell>
        <mxCell id="K4UdIjhKpKmGgGh5I3fO-99" style="edgeStyle=orthogonalEdgeStyle;rounded=0;orthogonalLoop=1;jettySize=auto;html=1;" parent="1" source="K4UdIjhKpKmGgGh5I3fO-78" edge="1">
          <mxGeometry relative="1" as="geometry">
            <mxPoint x="520" y="930" as="targetPoint" />
          </mxGeometry>
        </mxCell>
        <mxCell id="K4UdIjhKpKmGgGh5I3fO-78" value="Abbonamento????" style="swimlane;fontStyle=0;childLayout=stackLayout;horizontal=1;startSize=30;horizontalStack=0;resizeParent=1;resizeParentMax=0;resizeLast=0;collapsible=1;marginBottom=0;whiteSpace=wrap;html=1;" parent="1" vertex="1">
          <mxGeometry x="450" y="970" width="140" height="60" as="geometry" />
        </mxCell>
        <mxCell id="K4UdIjhKpKmGgGh5I3fO-93" style="edgeStyle=orthogonalEdgeStyle;rounded=0;orthogonalLoop=1;jettySize=auto;html=1;" parent="1" source="K4UdIjhKpKmGgGh5I3fO-79" edge="1">
          <mxGeometry relative="1" as="geometry">
            <mxPoint x="1060" y="460" as="targetPoint" />
          </mxGeometry>
        </mxCell>
        <mxCell id="K4UdIjhKpKmGgGh5I3fO-79" value="Profilo cliente" style="swimlane;fontStyle=0;childLayout=stackLayout;horizontal=1;startSize=30;horizontalStack=0;resizeParent=1;resizeParentMax=0;resizeLast=0;collapsible=1;marginBottom=0;whiteSpace=wrap;html=1;" parent="1" vertex="1">
          <mxGeometry x="450" y="870" width="140" height="60" as="geometry" />
        </mxCell>
        <mxCell id="K4UdIjhKpKmGgGh5I3fO-89" value="" style="endArrow=diamondThin;endFill=1;endSize=24;html=1;rounded=0;" parent="1" edge="1">
          <mxGeometry width="160" relative="1" as="geometry">
            <mxPoint x="1240" y="370" as="sourcePoint" />
            <mxPoint x="1240" y="190" as="targetPoint" />
          </mxGeometry>
        </mxCell>
        <mxCell id="K4UdIjhKpKmGgGh5I3fO-90" value="Messaggio" style="swimlane;fontStyle=0;childLayout=stackLayout;horizontal=1;startSize=30;horizontalStack=0;resizeParent=1;resizeParentMax=0;resizeLast=0;collapsible=1;marginBottom=0;whiteSpace=wrap;html=1;" parent="1" vertex="1">
          <mxGeometry x="1171" y="130" width="140" height="60" as="geometry" />
        </mxCell>
        <mxCell id="K4UdIjhKpKmGgGh5I3fO-91" style="edgeStyle=orthogonalEdgeStyle;rounded=0;orthogonalLoop=1;jettySize=auto;html=1;" parent="1" target="K4UdIjhKpKmGgGh5I3fO-77" edge="1">
          <mxGeometry relative="1" as="geometry">
            <mxPoint x="250" y="750" as="sourcePoint" />
            <Array as="points">
              <mxPoint x="251" y="750" />
            </Array>
          </mxGeometry>
        </mxCell>
        <mxCell id="K4UdIjhKpKmGgGh5I3fO-105" style="edgeStyle=orthogonalEdgeStyle;rounded=0;orthogonalLoop=1;jettySize=auto;html=1;entryX=0;entryY=0.5;entryDx=0;entryDy=0;" parent="1" source="K4UdIjhKpKmGgGh5I3fO-102" target="K4UdIjhKpKmGgGh5I3fO-103" edge="1">
          <mxGeometry relative="1" as="geometry" />
        </mxCell>
        <mxCell id="K4UdIjhKpKmGgGh5I3fO-102" value="Op Pagamento" style="swimlane;fontStyle=0;childLayout=stackLayout;horizontal=1;startSize=30;horizontalStack=0;resizeParent=1;resizeParentMax=0;resizeLast=0;collapsible=1;marginBottom=0;whiteSpace=wrap;html=1;" parent="1" vertex="1">
          <mxGeometry x="181" y="1060" width="140" height="60" as="geometry" />
        </mxCell>
        <mxCell id="K4UdIjhKpKmGgGh5I3fO-106" style="edgeStyle=orthogonalEdgeStyle;rounded=0;orthogonalLoop=1;jettySize=auto;html=1;" parent="1" source="K4UdIjhKpKmGgGh5I3fO-103" edge="1">
          <mxGeometry relative="1" as="geometry">
            <mxPoint x="1090" y="458.3333333333333" as="targetPoint" />
          </mxGeometry>
        </mxCell>
        <mxCell id="K4UdIjhKpKmGgGh5I3fO-103" value="Ricevuta" style="swimlane;fontStyle=0;childLayout=stackLayout;horizontal=1;startSize=30;horizontalStack=0;resizeParent=1;resizeParentMax=0;resizeLast=0;collapsible=1;marginBottom=0;whiteSpace=wrap;html=1;" parent="1" vertex="1">
          <mxGeometry x="450" y="1060" width="140" height="60" as="geometry" />
        </mxCell>
      </root>
    </mxGraphModel>
  </diagram>
</mxfile>
